<svg width="482" height="481" xmlns="http://www.w3.org/2000/svg" xmlns:xlink="http://www.w3.org/1999/xlink" xml:space="preserve" overflow="hidden"><defs><clipPath id="clip0"><rect x="1959" y="997" width="482" height="481"/></clipPath></defs><g clip-path="url(#clip0)" transform="translate(-1959 -997)"><path d="M2402.44 1458.76 2441 1458.76 2441 1478 2402.44 1478ZM2325.32 1458.76 2344.6 1458.76 2344.6 1478 2325.32 1478ZM2363.88 1439.52 2383.16 1439.52 2383.16 1458.76 2363.88 1458.76ZM2306.04 1439.52 2325.32 1439.52 2325.32 1458.76 2306.04 1458.76ZM2267.48 1439.52 2286.76 1439.52 2286.76 1458.76 2286.76 1478 2267.48 1478 2267.48 1458.76ZM2421.72 1420.28 2441 1420.28 2441 1439.52 2421.72 1439.52ZM2113.24 1401.04 2171.08 1401.04 2171.08 1420.28 2171.08 1439.52 2171.08 1458.76 2151.8 1458.76 2151.8 1478 2113.24 1478 2113.24 1458.76 2113.24 1439.52 2132.52 1439.52 2132.52 1420.28 2113.24 1420.28ZM2402.44 1381.8 2421.72 1381.8 2421.72 1401.04 2402.44 1401.04ZM2209.64 1381.8 2248.2 1381.8 2248.2 1401.04 2228.92 1401.04 2228.92 1420.28 2248.2 1420.28 2248.2 1439.52 2228.92 1439.52 2228.92 1458.76 2228.92 1478 2209.64 1478 2209.64 1458.76 2209.64 1439.52 2190.36 1439.52 2190.36 1420.28 2190.36 1401.04 2209.64 1401.04ZM1997.56 1381.8 2055.4 1381.8 2055.4 1401.04 2055.4 1420.28 2055.4 1439.52 1997.56 1439.52 1997.56 1420.28 1997.56 1401.04ZM2171.08 1362.56 2190.36 1362.56 2190.36 1381.8 2190.36 1401.04 2171.08 1401.04 2171.08 1381.8ZM1978.28 1362.56 1978.28 1381.8 1978.28 1401.04 1978.28 1420.28 1978.28 1439.52 1978.28 1458.76 2074.68 1458.76 2074.68 1439.52 2074.68 1420.28 2074.68 1401.04 2074.68 1381.8 2074.68 1362.56ZM2306.04 1343.32 2325.32 1343.32 2325.32 1362.56 2306.04 1362.56ZM2190.36 1343.32 2228.92 1343.32 2228.92 1362.56 2190.36 1362.56ZM1959 1343.32 2093.96 1343.32 2093.96 1362.56 2093.96 1381.8 2093.96 1401.04 2093.96 1420.28 2093.96 1439.52 2093.96 1458.76 2093.96 1478 1959 1478 1959 1458.76 1959 1439.52 1959 1420.28 1959 1401.04 1959 1381.8 1959 1362.56ZM2421.72 1324.08 2441 1324.08 2441 1343.32 2441 1362.56 2402.44 1362.56 2402.44 1343.32 2421.72 1343.32ZM2286.76 1324.08 2286.76 1343.32 2286.76 1362.56 2286.76 1381.8 2344.6 1381.8 2344.6 1362.56 2344.6 1343.32 2344.6 1324.08ZM2074.68 1304.84 2093.96 1304.84 2093.96 1324.08 2074.68 1324.08ZM2016.84 1304.84 2055.4 1304.84 2055.4 1324.08 2016.84 1324.08ZM2402.44 1285.6 2421.72 1285.6 2421.72 1304.84 2402.44 1304.84ZM2093.96 1285.6 2113.24 1285.6 2113.24 1304.84 2093.96 1304.84ZM1978.28 1285.6 1997.56 1285.6 1997.56 1304.84 1997.56 1324.08 1959 1324.08 1959 1304.84 1978.28 1304.84ZM2228.92 1266.36 2248.2 1266.36 2248.2 1285.6 2228.92 1285.6ZM2074.68 1266.36 2093.96 1266.36 2093.96 1285.6 2074.68 1285.6ZM1997.56 1266.36 2016.84 1266.36 2016.84 1285.6 1997.56 1285.6ZM1959 1266.36 1978.28 1266.36 1978.28 1285.6 1959 1285.6ZM2093.96 1247.12 2113.24 1247.12 2113.24 1266.36 2093.96 1266.36ZM1978.28 1247.12 1997.56 1247.12 1997.56 1266.36 1978.28 1266.36ZM2402.44 1227.88 2441 1227.88 2441 1247.12 2441 1266.36 2441 1285.6 2421.72 1285.6 2421.72 1266.36 2421.72 1247.12 2402.44 1247.12ZM2363.88 1227.88 2383.16 1227.88 2383.16 1247.12 2402.44 1247.12 2402.44 1266.36 2402.44 1285.6 2383.16 1285.6 2383.16 1266.36 2363.88 1266.36 2363.88 1247.12ZM2267.48 1208.64 2286.76 1208.64 2286.76 1227.88 2325.32 1227.88 2325.32 1247.12 2344.6 1247.12 2344.6 1266.36 2363.88 1266.36 2363.88 1285.6 2363.88 1304.84 2402.44 1304.84 2402.44 1324.08 2383.16 1324.08 2383.16 1343.32 2383.16 1362.56 2402.44 1362.56 2402.44 1381.8 2383.16 1381.8 2383.16 1401.04 2402.44 1401.04 2402.44 1420.28 2402.44 1439.52 2383.16 1439.52 2383.16 1420.28 2363.88 1420.28 2363.88 1439.52 2325.32 1439.52 2325.32 1420.28 2325.32 1401.04 2286.76 1401.04 2286.76 1420.28 2248.2 1420.28 2248.2 1401.04 2267.48 1401.04 2267.48 1381.8 2267.48 1362.56 2248.2 1362.56 2248.2 1343.32 2228.92 1343.32 2228.92 1324.08 2228.92 1304.84 2248.2 1304.84 2248.2 1324.08 2267.48 1324.08 2267.48 1304.84 2286.76 1304.84 2286.76 1285.6 2325.32 1285.6 2325.32 1304.84 2344.6 1304.84 2344.6 1285.6 2325.32 1285.6 2325.32 1266.36 2286.76 1266.36 2286.76 1285.6 2267.48 1285.6 2267.48 1266.36 2267.48 1247.12 2248.2 1247.12 2248.2 1227.88 2267.48 1227.88ZM2344.6 1189.4 2363.88 1189.4 2363.88 1208.64 2344.6 1208.64ZM1978.28 1189.4 1997.56 1189.4 1997.56 1208.64 2016.84 1208.64 2016.84 1227.88 2016.84 1247.12 1997.56 1247.12 1997.56 1227.88 1978.28 1227.88 1978.28 1247.12 1959 1247.12 1959 1227.88 1959 1208.64 1978.28 1208.64ZM2421.72 1170.16 2441 1170.16 2441 1189.4 2441 1208.64 2402.44 1208.64 2402.44 1189.4 2421.72 1189.4ZM2383.16 1150.92 2421.72 1150.92 2421.72 1170.16 2383.16 1170.16ZM2306.04 1150.92 2363.88 1150.92 2363.88 1170.16 2325.32 1170.16 2325.32 1189.4 2325.32 1208.64 2286.76 1208.64 2286.76 1189.4 2267.48 1189.4 2267.48 1170.16 2306.04 1170.16ZM2151.8 1150.92 2171.08 1150.92 2171.08 1170.16 2190.36 1170.16 2190.36 1189.4 2171.08 1189.4 2171.08 1208.64 2132.52 1208.64 2132.52 1227.88 2132.52 1247.12 2113.24 1247.12 2113.24 1227.88 2093.96 1227.88 2093.96 1208.64 2074.68 1208.64 2074.68 1189.4 2151.8 1189.4 2151.8 1170.16ZM2074.68 1150.92 2113.24 1150.92 2113.24 1170.16 2074.68 1170.16ZM2016.84 1150.92 2036.12 1150.92 2036.12 1170.16 2055.4 1170.16 2055.4 1189.4 2055.4 1208.64 2055.4 1227.88 2093.96 1227.88 2093.96 1247.12 2055.4 1247.12 2055.4 1266.36 2055.4 1285.6 2036.12 1285.6 2036.12 1266.36 2036.12 1247.12 2036.12 1227.88 2036.12 1208.64 2016.84 1208.64 2016.84 1189.4 2016.84 1170.16ZM1959 1150.92 1997.56 1150.92 1997.56 1170.16 1959 1170.16ZM2267.48 1112.44 2286.76 1112.44 2286.76 1131.68 2267.48 1131.68ZM2190.36 1112.44 2209.64 1112.44 2209.64 1131.68 2209.64 1150.92 2190.36 1150.92 2190.36 1131.68ZM2151.8 1112.44 2171.08 1112.44 2171.08 1131.68 2151.8 1131.68ZM2171.08 1093.2 2190.36 1093.2 2190.36 1112.44 2171.08 1112.44ZM2113.24 1073.96 2132.52 1073.96 2132.52 1093.2 2151.8 1093.2 2151.8 1112.44 2132.52 1112.44 2132.52 1131.68 2151.8 1131.68 2151.8 1150.92 2113.24 1150.92 2113.24 1131.68 2113.24 1112.44 2113.24 1093.2ZM2228.92 1054.72 2267.48 1054.72 2267.48 1073.96 2286.76 1073.96 2286.76 1093.2 2267.48 1093.2 2267.48 1112.44 2248.2 1112.44 2248.2 1131.68 2248.2 1150.92 2248.2 1170.16 2228.92 1170.16 2228.92 1189.4 2228.92 1208.64 2228.92 1227.88 2228.92 1247.12 2228.92 1266.36 2209.64 1266.36 2209.64 1285.6 2228.92 1285.6 2228.92 1304.84 2209.64 1304.84 2209.64 1324.08 2151.8 1324.08 2151.8 1343.32 2132.52 1343.32 2132.52 1362.56 2113.24 1362.56 2113.24 1343.32 2113.24 1324.08 2113.24 1304.84 2190.36 1304.84 2190.36 1285.6 2190.36 1266.36 2132.52 1266.36 2132.52 1247.12 2190.36 1247.12 2190.36 1227.88 2209.64 1227.88 2209.64 1208.64 2209.64 1189.4 2209.64 1170.16 2209.64 1150.92 2228.92 1150.92 2228.92 1131.68 2228.92 1112.44 2228.92 1093.2 2209.64 1093.2 2209.64 1073.96 2228.92 1073.96ZM2344.6 1035.48 2402.44 1035.48 2402.44 1054.72 2402.44 1073.96 2402.44 1093.2 2344.6 1093.2 2344.6 1073.96 2344.6 1054.72ZM1997.56 1035.48 2055.4 1035.48 2055.4 1054.72 2055.4 1073.96 2055.4 1093.2 1997.56 1093.2 1997.56 1073.96 1997.56 1054.72ZM2325.32 1016.24 2325.32 1035.48 2325.32 1054.72 2325.32 1073.96 2325.32 1093.2 2325.32 1112.44 2421.72 1112.44 2421.72 1093.2 2421.72 1073.96 2421.72 1054.72 2421.72 1035.48 2421.72 1016.24ZM1978.28 1016.24 1978.28 1035.48 1978.28 1054.72 1978.28 1073.96 1978.28 1093.2 1978.28 1112.44 2074.68 1112.44 2074.68 1093.2 2074.68 1073.96 2074.68 1054.72 2074.68 1035.48 2074.68 1016.24ZM2306.04 997 2441 997 2441 1016.24 2441 1035.48 2441 1054.72 2441 1073.96 2441 1093.2 2441 1112.44 2441 1131.68 2306.04 1131.68 2306.04 1112.44 2306.04 1093.2 2306.04 1073.96 2306.04 1054.72 2306.04 1035.48 2306.04 1016.24ZM2248.2 997 2267.48 997 2267.48 1016.24 2267.48 1035.48 2248.2 1035.48 2248.2 1016.24ZM2190.36 997 2209.64 997 2209.64 1016.24 2228.92 1016.24 2228.92 1035.48 2209.64 1035.48 2209.64 1054.72 2190.36 1054.72 2190.36 1073.96 2132.52 1073.96 2132.52 1054.72 2113.24 1054.72 2113.24 1035.48 2113.24 1016.24 2132.52 1016.24 2132.52 1035.48 2171.08 1035.48 2171.08 1016.24 2190.36 1016.24ZM2132.52 997 2151.8 997 2151.8 1016.24 2132.52 1016.24ZM1959 997 2093.96 997 2093.96 1016.24 2093.96 1035.48 2093.96 1054.72 2093.96 1073.96 2093.96 1093.2 2093.96 1112.44 2093.96 1131.68 1959 1131.68 1959 1112.44 1959 1093.2 1959 1073.96 1959 1054.72 1959 1035.48 1959 1016.24Z" fill-rule="evenodd"/></g></svg>