<?xml version="1.0" encoding="utf-8"?><svg version="1.1" xmlns="http://www.w3.org/2000/svg" xmlns:xlink="http://www.w3.org/1999/xlink" width="140" height="140" viewBox="0 0 250 250"><rect x="0" y="0" width="70" height="10"></rect><rect x="90" y="0" width="10" height="10"></rect><rect x="120" y="0" width="10" height="10"></rect><rect x="150" y="0" width="10" height="10"></rect><rect x="180" y="0" width="70" height="10"></rect><rect x="0" y="10" width="10" height="10"></rect><rect x="60" y="10" width="10" height="10"></rect><rect x="80" y="10" width="10" height="10"></rect><rect x="110" y="10" width="30" height="10"></rect><rect x="150" y="10" width="10" height="10"></rect><rect x="180" y="10" width="10" height="10"></rect><rect x="240" y="10" width="10" height="10"></rect><rect x="0" y="20" width="10" height="10"></rect><rect x="20" y="20" width="30" height="10"></rect><rect x="60" y="20" width="10" height="10"></rect><rect x="80" y="20" width="50" height="10"></rect><rect x="180" y="20" width="10" height="10"></rect><rect x="200" y="20" width="30" height="10"></rect><rect x="240" y="20" width="10" height="10"></rect><rect x="0" y="30" width="10" height="10"></rect><rect x="20" y="30" width="30" height="10"></rect><rect x="60" y="30" width="10" height="10"></rect><rect x="90" y="30" width="30" height="10"></rect><rect x="140" y="30" width="20" height="10"></rect><rect x="180" y="30" width="10" height="10"></rect><rect x="200" y="30" width="30" height="10"></rect><rect x="240" y="30" width="10" height="10"></rect><rect x="0" y="40" width="10" height="10"></rect><rect x="20" y="40" width="30" height="10"></rect><rect x="60" y="40" width="10" height="10"></rect><rect x="80" y="40" width="10" height="10"></rect><rect x="130" y="40" width="40" height="10"></rect><rect x="180" y="40" width="10" height="10"></rect><rect x="200" y="40" width="30" height="10"></rect><rect x="240" y="40" width="10" height="10"></rect><rect x="0" y="50" width="10" height="10"></rect><rect x="60" y="50" width="10" height="10"></rect><rect x="80" y="50" width="20" height="10"></rect><rect x="110" y="50" width="10" height="10"></rect><rect x="140" y="50" width="20" height="10"></rect><rect x="180" y="50" width="10" height="10"></rect><rect x="240" y="50" width="10" height="10"></rect><rect x="0" y="60" width="70" height="10"></rect><rect x="80" y="60" width="10" height="10"></rect><rect x="100" y="60" width="10" height="10"></rect><rect x="120" y="60" width="10" height="10"></rect><rect x="140" y="60" width="10" height="10"></rect><rect x="160" y="60" width="10" height="10"></rect><rect x="180" y="60" width="70" height="10"></rect><rect x="80" y="70" width="20" height="10"></rect><rect x="120" y="70" width="10" height="10"></rect><rect x="140" y="70" width="10" height="10"></rect><rect x="0" y="80" width="20" height="10"></rect><rect x="30" y="80" width="10" height="10"></rect><rect x="60" y="80" width="20" height="10"></rect><rect x="100" y="80" width="10" height="10"></rect><rect x="130" y="80" width="20" height="10"></rect><rect x="180" y="80" width="30" height="10"></rect><rect x="220" y="80" width="20" height="10"></rect><rect x="30" y="90" width="20" height="10"></rect><rect x="100" y="90" width="20" height="10"></rect><rect x="130" y="90" width="10" height="10"></rect><rect x="160" y="90" width="30" height="10"></rect><rect x="240" y="90" width="10" height="10"></rect><rect x="10" y="100" width="10" height="10"></rect><rect x="30" y="100" width="20" height="10"></rect><rect x="60" y="100" width="50" height="10"></rect><rect x="130" y="100" width="10" height="10"></rect><rect x="170" y="100" width="20" height="10"></rect><rect x="200" y="100" width="10" height="10"></rect><rect x="230" y="100" width="20" height="10"></rect><rect x="0" y="110" width="30" height="10"></rect><rect x="40" y="110" width="10" height="10"></rect><rect x="70" y="110" width="20" height="10"></rect><rect x="130" y="110" width="10" height="10"></rect><rect x="160" y="110" width="10" height="10"></rect><rect x="0" y="120" width="10" height="10"></rect><rect x="20" y="120" width="10" height="10"></rect><rect x="40" y="120" width="30" height="10"></rect><rect x="80" y="120" width="10" height="10"></rect><rect x="120" y="120" width="20" height="10"></rect><rect x="150" y="120" width="40" height="10"></rect><rect x="210" y="120" width="10" height="10"></rect><rect x="230" y="120" width="20" height="10"></rect><rect x="10" y="130" width="10" height="10"></rect><rect x="40" y="130" width="10" height="10"></rect><rect x="70" y="130" width="10" height="10"></rect><rect x="90" y="130" width="50" height="10"></rect><rect x="160" y="130" width="40" height="10"></rect><rect x="210" y="130" width="20" height="10"></rect><rect x="240" y="130" width="10" height="10"></rect><rect x="0" y="140" width="10" height="10"></rect><rect x="20" y="140" width="10" height="10"></rect><rect x="40" y="140" width="10" height="10"></rect><rect x="60" y="140" width="10" height="10"></rect><rect x="120" y="140" width="10" height="10"></rect><rect x="140" y="140" width="10" height="10"></rect><rect x="160" y="140" width="10" height="10"></rect><rect x="190" y="140" width="20" height="10"></rect><rect x="220" y="140" width="10" height="10"></rect><rect x="240" y="140" width="10" height="10"></rect><rect x="10" y="150" width="10" height="10"></rect><rect x="70" y="150" width="10" height="10"></rect><rect x="120" y="150" width="20" height="10"></rect><rect x="170" y="150" width="20" height="10"></rect><rect x="200" y="150" width="10" height="10"></rect><rect x="230" y="150" width="10" height="10"></rect><rect x="0" y="160" width="20" height="10"></rect><rect x="30" y="160" width="20" height="10"></rect><rect x="60" y="160" width="10" height="10"></rect><rect x="80" y="160" width="50" height="10"></rect><rect x="140" y="160" width="10" height="10"></rect><rect x="160" y="160" width="70" height="10"></rect><rect x="80" y="170" width="20" height="10"></rect><rect x="140" y="170" width="30" height="10"></rect><rect x="200" y="170" width="20" height="10"></rect><rect x="240" y="170" width="10" height="10"></rect><rect x="0" y="180" width="70" height="10"></rect><rect x="80" y="180" width="10" height="10"></rect><rect x="120" y="180" width="20" height="10"></rect><rect x="150" y="180" width="20" height="10"></rect><rect x="180" y="180" width="10" height="10"></rect><rect x="200" y="180" width="20" height="10"></rect><rect x="230" y="180" width="20" height="10"></rect><rect x="0" y="190" width="10" height="10"></rect><rect x="60" y="190" width="10" height="10"></rect><rect x="110" y="190" width="10" height="10"></rect><rect x="160" y="190" width="10" height="10"></rect><rect x="200" y="190" width="30" height="10"></rect><rect x="0" y="200" width="10" height="10"></rect><rect x="20" y="200" width="30" height="10"></rect><rect x="60" y="200" width="10" height="10"></rect><rect x="110" y="200" width="10" height="10"></rect><rect x="130" y="200" width="20" height="10"></rect><rect x="160" y="200" width="60" height="10"></rect><rect x="230" y="200" width="10" height="10"></rect><rect x="0" y="210" width="10" height="10"></rect><rect x="20" y="210" width="30" height="10"></rect><rect x="60" y="210" width="10" height="10"></rect><rect x="80" y="210" width="30" height="10"></rect><rect x="120" y="210" width="20" height="10"></rect><rect x="150" y="210" width="20" height="10"></rect><rect x="190" y="210" width="40" height="10"></rect><rect x="0" y="220" width="10" height="10"></rect><rect x="20" y="220" width="30" height="10"></rect><rect x="60" y="220" width="10" height="10"></rect><rect x="90" y="220" width="20" height="10"></rect><rect x="120" y="220" width="30" height="10"></rect><rect x="190" y="220" width="20" height="10"></rect><rect x="220" y="220" width="10" height="10"></rect><rect x="240" y="220" width="10" height="10"></rect><rect x="0" y="230" width="10" height="10"></rect><rect x="60" y="230" width="10" height="10"></rect><rect x="80" y="230" width="30" height="10"></rect><rect x="130" y="230" width="10" height="10"></rect><rect x="160" y="230" width="10" height="10"></rect><rect x="180" y="230" width="10" height="10"></rect><rect x="210" y="230" width="10" height="10"></rect><rect x="0" y="240" width="70" height="10"></rect><rect x="80" y="240" width="20" height="10"></rect><rect x="130" y="240" width="10" height="10"></rect><rect x="160" y="240" width="10" height="10"></rect><rect x="190" y="240" width="10" height="10"></rect><rect x="230" y="240" width="20" height="10"></rect></svg>